HIERARCHY
ROOT Hips
{
	OFFSET	0.00	0.00	0.00
	CHANNELS 6 Xposition Yposition Zposition Zrotation Xrotation Yrotation
	JOINT LeftUpLeg
	{
		OFFSET	 0.126116	-0.014019	-0.065224
		CHANNELS 3 Zrotation Xrotation Yrotation
		JOINT LeftLeg
		{
			OFFSET	 0.000000	 0.000000	 0.569914
			CHANNELS 3 Zrotation Xrotation Yrotation
			JOINT LeftFoot
			{
				OFFSET	 0.000000	 0.000000	 0.544423
				CHANNELS 3 Zrotation Xrotation Yrotation
				JOINT LeftToeBase
				{
					OFFSET	 0.000000	 0.000000	 0.207117
					CHANNELS 3 Zrotation Xrotation Yrotation
					End Site
					{
						OFFSET	 0.000000	 0.000000	 0.207117
					}
				}
			}
		}
	}
	JOINT RightUpLeg
	{
		OFFSET	-0.124023	-0.008373	-0.065224
		CHANNELS 3 Zrotation Xrotation Yrotation
		JOINT RightLeg
		{
			OFFSET	 0.000000	 0.000000	 0.570047
			CHANNELS 3 Zrotation Xrotation Yrotation
			JOINT RightFoot
			{
				OFFSET	 0.000000	 0.000000	 0.544354
				CHANNELS 3 Zrotation Xrotation Yrotation
				JOINT RightToeBase
				{
					OFFSET	 0.000000	 0.000000	 0.207540
					CHANNELS 3 Zrotation Xrotation Yrotation
					End Site
					{
						OFFSET	 0.000000	 0.000000	 0.207540
					}
				}
			}
		}
	}
	JOINT Spine
	{
		OFFSET	 0.000184	-0.007763	 0.117403
		CHANNELS 3 Zrotation Xrotation Yrotation
		JOINT Spine1
		{
			OFFSET	 0.000000	 0.000000	 0.137269
			CHANNELS 3 Zrotation Xrotation Yrotation
			JOINT Spine2
			{
				OFFSET	 0.000000	 0.000000	 0.156879
				CHANNELS 3 Zrotation Xrotation Yrotation
				JOINT LeftShoulder
				{
					OFFSET	 0.080501	-0.002496	 0.160144
					CHANNELS 3 Zrotation Xrotation Yrotation
					JOINT LeftArm
					{
						OFFSET	 0.000000	 0.000000	 0.164363
						CHANNELS 3 Zrotation Xrotation Yrotation
						JOINT LeftForeArm
						{
							OFFSET	 0.000000	 0.000000	 0.364576
							CHANNELS 3 Zrotation Xrotation Yrotation
							JOINT LeftHand
							{
								OFFSET	 0.000000	 0.000000	 0.360812
								CHANNELS 3 Zrotation Xrotation Yrotation
								JOINT LeftHandIndex1
								{
									OFFSET	 0.000000	 0.000000	 0.086006
									CHANNELS 3 Zrotation Xrotation Yrotation
									JOINT LeftHandIndex2
									{
										OFFSET	 0.000000	 0.000000	 0.047236
										CHANNELS 3 Zrotation Xrotation Yrotation
										JOINT LeftHandIndex3
										{
											OFFSET	-0.004284	-0.000551	 0.038166
											CHANNELS 3 Zrotation Xrotation Yrotation
											End Site
											{
												OFFSET	-0.004284	-0.000551	 0.038166
											}
										}
									}
								}
							}
						}
					}
				}
				JOINT Neck
				{
					OFFSET	 0.000000	 0.000000	 0.176489
					CHANNELS 3 Zrotation Xrotation Yrotation
					JOINT Head
					{
						OFFSET	 0.000000	-0.001747	 0.077940
						CHANNELS 3 Zrotation Xrotation Yrotation
						End Site
						{
							OFFSET	 0.000000	-0.001747	 0.077940
						}
					}
				}
				JOINT RightShoulder
				{
					OFFSET	-0.080363	 0.000306	 0.159706
					CHANNELS 3 Zrotation Xrotation Yrotation
					JOINT RightArm
					{
						OFFSET	 0.000000	 0.000000	 0.164196
						CHANNELS 3 Zrotation Xrotation Yrotation
						JOINT RightForeArm
						{
							OFFSET	 0.000000	 0.000000	 0.365611
							CHANNELS 3 Zrotation Xrotation Yrotation
							JOINT RightHand
							{
								OFFSET	 0.000000	 0.000000	 0.360648
								CHANNELS 3 Zrotation Xrotation Yrotation
								JOINT RightHandIndex1
								{
									OFFSET	 0.000000	 0.000000	 0.069977
									CHANNELS 3 Zrotation Xrotation Yrotation
									JOINT RightHandIndex2
									{
										OFFSET	 0.000000	 0.000000	 0.052305
										CHANNELS 3 Zrotation Xrotation Yrotation
										JOINT RightHandIndex3
										{
											OFFSET	 0.009002	-0.000782	 0.042196
											CHANNELS 3 Zrotation Xrotation Yrotation
											End Site
											{
												OFFSET	 0.009002	-0.000782	 0.042196
											}
										}
									}
								}
							}
						}
					}
				}
			}
		}
	}
}
MOTION
Frames:    9
Frame Time: 0.03333334
-0.041116	 0.237559	 1.039238	 3.137121	 33.533450	-8.101230	 19.965040	-82.865540	-160.199900	 6.516652	-71.648320	 6.583763	 1.508419	 77.816640	-0.612308	-2.385832	 28.452790	-0.000001	 73.364040	-78.339530	-110.412700	-18.030560	-75.192960	-12.470020	 30.446780	 76.549210	-18.906010	 2.384659	 28.388700	-0.000001	-9.846762	 14.953820	 0.309807	-1.625445	 22.365710	 0.592415	-5.636315	-2.985977	 4.163396	-99.117260	 68.196110	 156.938400	 7.759261	-4.798519	-55.476570	-22.005060	 2.715886	-10.434530	-33.507970	-49.972090	-22.879340	-2.027600	 6.559038	 9.033609	-5.188889	 0.308190	 3.541030	-5.234859	 0.342567	 0.430617	 0.243895	 16.993570	-5.725046	-4.687541	-27.667390	-3.184594	 97.408550	 64.629550	-159.267700	-9.116339	 5.624922	 58.546700	 5.000770	 7.940395	 32.381330	 14.205170	-49.388840	 16.538940	 1.803333	 3.979147	-15.098590	 4.898592	 3.004813	-9.310344	 5.224449	 0.395017	 2.014677
-0.039338	 0.236749	 1.054806	 2.970791	 32.330220	-7.587653	 12.814850	-80.431080	-167.204700	 5.581295	-69.551280	 5.622390	 1.436516	 76.878640	-0.586874	-2.385832	 28.452790	-0.000001	 60.254750	-77.588550	-123.292900	-16.757280	-73.052410	-11.119600	 28.671540	 75.819050	-16.962100	 2.384659	 28.388700	-0.000001	-8.934357	 14.864560	 0.119394	-1.239286	 22.814700	 0.084717	-6.001178	-3.985252	 3.881163	-98.677630	 68.576480	 157.726000	 8.046228	-2.398849	-56.499830	-21.694720	 2.729642	-10.467340	-35.684810	-54.148060	-24.431080	-2.027600	 6.559038	 9.033609	-5.188889	 0.308190	 3.541030	-5.234859	 0.342567	 0.430617	-0.325997	 12.739470	-4.470782	-5.272964	-23.342540	-3.576191	 97.166750	 64.283000	-160.219900	-10.094820	 5.488466	 58.082170	 5.315955	 8.588954	 34.096970	 15.402650	-53.215010	 18.330640	 1.803333	 3.979147	-15.098590	 4.898592	 3.004813	-9.310344	 5.224449	 0.395017	 2.014677
-0.036982	 0.236147	 1.072381	 2.789034	 30.971040	-7.028893	 8.193119	-77.555640	-171.653900	 4.846286	-67.094200	 4.849897	 1.287345	 75.781860	-0.555190	-2.385832	 28.452790	-0.000001	 47.751550	-76.041800	-135.523100	-15.675730	-70.533780	-9.939925	 26.901410	 74.967320	-15.021180	 2.384659	 28.388700	-0.000001	-8.042653	 14.745470	-0.046034	-0.865258	 23.154640	-0.391712	-6.390713	-5.069738	 3.536882	-97.978780	 69.469050	 158.578700	 8.767298	 0.666560	-57.635600	-21.290100	 2.735226	-10.485860	-38.455260	-57.865560	-26.724410	-2.027600	 6.559038	 9.033609	-5.188889	 0.308190	 3.541030	-5.234859	 0.342567	 0.430617	-0.769600	 7.653920	-3.336205	-5.760139	-18.246370	-3.820820	 96.859490	 64.184470	-161.105800	-11.303360	 5.872390	 57.275680	 5.178039	 9.160144	 36.196560	 16.250580	-56.373810	 19.774270	 1.803333	 3.979147	-15.098590	 4.898592	 3.004813	-9.310344	 5.224449	 0.395017	 2.014677
-0.034516	 0.235415	 1.088886	 2.594163	 29.639820	-6.463300	 5.437743	-74.729390	-174.302000	 4.351362	-64.763310	 4.314637	 1.152814	 74.808070	-0.535151	-2.385833	 28.452760	 0.000004	 38.347920	-74.069330	-144.705700	-14.965100	-68.106500	-9.123034	 25.526030	 74.179500	-13.444700	 2.384659	 28.388700	-0.000001	-7.250040	 14.608620	-0.189166	-0.547630	 23.378850	-0.769309	-6.732344	-6.109190	 3.188781	-97.096640	 70.782470	 159.363200	 9.677369	 3.898336	-58.835310	-20.858320	 2.732205	-10.488000	-41.342450	-60.623800	-29.294270	-2.027600	 6.559038	 9.033609	-5.188889	 0.308190	 3.541030	-5.234859	 0.342567	 0.430617	-1.048095	 2.562148	-2.413818	-6.130746	-13.202800	-3.930835	 96.486110	 64.585270	-161.747300	-12.490060	 7.012763	 56.509250	 4.665977	 9.531101	 38.301460	 16.657990	-58.723740	 20.621900	 1.803333	 3.979147	-15.098590	 4.898592	 3.004813	-9.310344	 5.224449	 0.395017	 2.014677
-0.031171	 0.234324	 1.108438	 2.378840	 28.009900	-5.677727	 3.116510	-71.296530	-176.578000	 4.148446	-61.992140	 4.032232	 1.096146	 73.741170	-0.716033	-2.385833	 28.452760	 0.000004	 29.608940	-71.308350	-153.214200	-14.508190	-65.155880	-8.508826	 24.283310	 73.274680	-11.820610	 2.384659	 28.388700	-0.000001	-6.275685	 14.492730	-0.419944	-0.119278	 23.608700	-1.311870	-7.084089	-7.353588	 2.864104	-95.402820	 73.522930	 160.133800	 10.944700	 8.491266	-61.065270	-20.263650	 2.719120	-10.473610	-44.623820	-63.148150	-32.119790	-2.027600	 6.559038	 9.033609	-5.188889	 0.308190	 3.541030	-5.234859	 0.342567	 0.430617	-1.305837	-3.660742	-2.159953	-6.336732	-7.104138	-3.343491	 95.607150	 66.270180	-162.654100	-13.923980	 9.700721	 56.646750	 3.812414	 9.776211	 40.766610	 17.169940	-61.407400	 21.404230	 1.803333	 3.979147	-15.098590	 4.898592	 3.004813	-9.310344	 5.224449	 0.395017	 2.014677
-0.027694	 0.232424	 1.126691	 2.299685	 26.494950	-4.941245	 1.420818	-68.030060	-178.176300	 4.139584	-59.350100	 3.921776	 1.118691	 72.687680	-1.005076	-2.385833	 28.452750	 0.000004	 23.554460	-68.376610	-159.062200	-13.073510	-62.417980	-7.035897	 23.066150	 72.531630	-10.737290	 2.384659	 28.388700	-0.000001	-5.426049	 14.309590	-0.675177	 0.216585	 23.744550	-1.838896	-7.370130	-8.485830	 2.632782	-93.785830	 75.899980	 160.780300	 12.540880	 12.115860	-63.143450	-19.658620	 2.698571	-10.444810	-46.457350	-64.536320	-34.125850	-2.027600	 6.559038	 9.033609	-5.188889	 0.308190	 3.541030	-5.234859	 0.342567	 0.430617	-1.527827	-9.676236	-2.420095	-6.514756	-1.330505	-2.498599	 94.798150	 67.867120	-163.466600	-15.480820	 11.989830	 56.768840	 3.034969	 10.031700	 43.299980	 16.692890	-63.026980	 21.176740	 1.803333	 3.979147	-15.098590	 4.898592	 3.004813	-9.310344	 5.224449	 0.395017	 2.014677
-0.023705	 0.228596	 1.148224	 2.477997	 24.899720	-4.233883	 0.033821	-64.218560	-179.333300	 4.098345	-56.047610	 3.752822	 1.354677	 71.385030	-1.494453	-2.385833	 28.452750	 0.000004	 18.356320	-64.743790	-163.889400	-11.363300	-59.067070	-5.338294	 21.700860	 71.522120	-9.656000	 2.384659	 28.388700	-0.000001	-4.340293	 13.678970	-1.031721	 0.505692	 23.654730	-2.333704	-7.647116	-9.756250	 2.177848	-93.362920	 76.341510	 162.049000	 14.380530	 14.637730	-64.336540	-18.899440	 2.663459	-10.390390	-46.368970	-64.893520	-35.278860	-2.027600	 6.559038	 9.033609	-5.188889	 0.308190	 3.541030	-5.234859	 0.342567	 0.430617	-1.668426	-13.637530	-1.920899	-6.783277	 2.592280	-2.307566	 94.108360	 69.100570	-164.352900	-17.244080	 14.408310	 55.929040	 2.039965	 10.300780	 46.611200	 14.846300	-63.607000	 19.948290	 1.803333	 3.979147	-15.098590	 4.898592	 3.004813	-9.310344	 5.224449	 0.395017	 2.014677
-0.020269	 0.222690	 1.171363	 2.810821	 23.489320	-3.711107	-0.990686	-60.223130	 179.978700	 3.999175	-52.207620	 3.492058	 1.328755	 69.849490	-1.720808	-2.385833	 28.452750	 0.000004	 14.336130	-60.856880	-167.396500	-9.713465	-55.229740	-3.754278	 19.827940	 70.190340	-8.200096	 2.384659	 28.388700	-0.000001	-3.083412	 12.492980	-1.232067	 0.852577	 23.285760	-2.718062	-7.911372	-11.009380	 1.571211	-94.048000	 74.883180	 163.678400	 15.596260	 15.488350	-60.808600	-17.570090	 6.015443	-16.631990	-43.227170	-63.970140	-34.316990	-2.027600	 6.559038	 9.033609	-5.188889	 0.308190	 3.541030	-5.234859	 0.342567	 0.430617	-1.699268	-14.809440	-0.996598	-6.989067	 3.993703	-2.606464	 93.839510	 69.063730	-165.393300	-18.767650	 16.032710	 53.532250	 0.887787	 10.581180	 50.713520	 11.629250	-62.553850	 17.896270	 1.803333	 3.979147	-15.098590	 4.898592	 3.004813	-9.310344	 5.224449	 0.395017	 2.014677
-0.018114	 0.216334	 1.192064	 2.993427	 22.338150	-3.304857	-1.821588	-56.549050	 179.425100	 3.867369	-48.530910	 3.212617	 0.768801	 68.325470	-1.424780	-2.385833	 28.452750	 0.000004	 11.435540	-57.283380	-169.850800	-8.439489	-51.524120	-2.579255	 17.621240	 68.788890	-6.485958	 2.384659	 28.388700	-0.000001	-1.967240	 11.234140	-1.105029	 1.344016	 22.814590	-2.988225	-8.196460	-12.055460	 1.096878	-94.402450	 73.793920	 164.873300	 16.685840	 15.915700	-57.031990	-15.854220	 9.307153	-23.434200	-38.020790	-62.255430	-31.237670	-2.027600	 6.559038	 9.033609	-5.188889	 0.308190	 3.541030	-5.234859	 0.342567	 0.430617	-1.802278	-15.264940	-0.979030	-7.078770	 4.715101	-2.334671	 93.999530	 67.388740	-166.584400	-19.790590	 16.049500	 50.549520	-0.151132	 10.816460	 54.709550	 8.142010	-60.120940	 15.989250	 1.803333	 3.979147	-15.098590	 4.898592	 3.004813	-9.310344	 5.224449	 0.395017	 2.014677
